<svg width="31" height="31" viewBox="0 0 31 31" fill="none" xmlns="http://www.w3.org/2000/svg">
<path d="M15.5728 25.7084L19.729 21.5886L15.5728 17.4688L14.0415 19L15.6092 20.5677C14.9287 20.592 14.2666 20.4827 13.623 20.2396C12.9794 19.9965 12.4019 19.6198 11.8905 19.1094C11.4044 18.6233 11.0335 18.0643 10.7778 17.4323C10.5221 16.8004 10.3947 16.1684 10.3957 15.5365C10.3957 15.1233 10.4506 14.7101 10.5605 14.2969C10.6703 13.8837 10.822 13.4827 11.0155 13.0938L9.4113 11.4896C8.9981 12.0972 8.69428 12.7413 8.49984 13.4219C8.30539 14.1025 8.20817 14.7952 8.20817 15.5C8.20817 16.4236 8.39046 17.3351 8.75505 18.2344C9.11963 19.1337 9.65435 19.9358 10.3592 20.6406C11.0641 21.3455 11.854 21.8744 12.729 22.2273C13.604 22.5802 14.5033 22.7684 15.4269 22.7917L14.0415 24.1771L15.5728 25.7084ZM21.5884 19.5104C22.0016 18.9028 22.3054 18.2587 22.4998 17.5781C22.6943 16.8976 22.7915 16.2049 22.7915 15.5C22.7915 14.5764 22.615 13.6586 22.2621 12.7467C21.9092 11.8347 21.3808 11.0268 20.6769 10.3229C19.973 9.61905 19.1768 9.09648 18.2882 8.75523C17.3996 8.41398 16.4944 8.24384 15.5728 8.24481L16.9582 6.82294L15.4269 5.29169L11.2707 9.41148L15.4269 13.5313L16.9582 12L15.354 10.3959C16.0103 10.3959 16.6787 10.5237 17.3592 10.7794C18.0398 11.0351 18.6231 11.4055 19.1092 11.8906C19.5953 12.3758 19.9662 12.9348 20.2219 13.5677C20.4776 14.2006 20.605 14.8326 20.604 15.4636C20.604 15.8768 20.5496 16.29 20.4407 16.7031C20.3318 17.1163 20.1796 17.5174 19.9842 17.9063L21.5884 19.5104ZM15.4998 30.0834C13.4825 30.0834 11.5866 29.7003 9.81234 28.9342C8.03803 28.1681 6.49463 27.1293 5.18213 25.8177C3.86963 24.5062 2.83081 22.9628 2.06567 21.1875C1.30053 19.4122 0.917478 17.5164 0.916506 15.5C0.915534 13.4836 1.29859 11.5878 2.06567 9.81252C2.83276 8.03724 3.87158 6.49384 5.18213 5.18231C6.49269 3.87078 8.03609 2.83196 9.81234 2.06585C11.5886 1.29974 13.4844 0.916687 15.4998 0.916687C17.5153 0.916687 19.4111 1.29974 21.1873 2.06585C22.9636 2.83196 24.507 3.87078 25.8176 5.18231C27.1281 6.49384 28.1674 8.03724 28.9355 9.81252C29.7035 11.5878 30.0861 13.4836 30.0832 15.5C30.0803 17.5164 29.6972 19.4122 28.934 21.1875C28.1708 22.9628 27.132 24.5062 25.8176 25.8177C24.5031 27.1293 22.9597 28.1686 21.1873 28.9356C19.415 29.7027 17.5191 30.0853 15.4998 30.0834Z" fill="white"/>
</svg>
