<svg width="32" height="30" viewBox="0 0 32 30" fill="none" xmlns="http://www.w3.org/2000/svg">
<path fill-rule="evenodd" clip-rule="evenodd" d="M25.4579 0.00031785C25.7507 0.174842 25.8556 0.433878 25.8316 0.770969C25.8127 1.03668 25.8278 1.30481 25.8278 1.62819C26.1503 1.62819 26.4487 1.62811 26.7472 1.62819C27.3428 1.62826 27.9389 1.61755 28.5343 1.63112C29.4582 1.6521 30.058 2.23869 30.0588 3.1444C30.0624 7.3376 30.0572 11.5307 30.0521 15.7239C30.0516 16.1362 29.8531 16.3556 29.5085 16.3568C29.1635 16.358 28.9609 16.1343 28.9606 15.7283C28.9595 14.1268 28.9636 12.5254 28.9651 10.9239C28.9659 9.9854 28.9652 9.04683 28.9652 8.08757C19.667 8.08757 10.3984 8.08757 1.09371 8.08757C1.09371 8.23297 1.09371 8.36406 1.09371 8.49516C1.09371 15.0723 1.09371 21.6493 1.09378 28.2265C1.09385 28.8257 1.16068 28.8925 1.76709 28.8921C6.73934 28.8889 11.7117 28.8844 16.6839 28.8827C17.5713 28.8824 18.4586 28.8931 19.346 28.9011C19.7539 28.9047 19.9787 29.0961 19.986 29.4378C19.9935 29.7977 19.7661 30 19.3359 29.9999C13.4153 29.9983 7.49443 29.9943 1.57376 29.9931C0.760005 29.993 0.26354 29.5716 -0.000488281 28.8271C-0.000488281 20.1472 -0.000488281 11.4673 -0.000488281 2.78735C0.306292 1.91855 0.934592 1.57485 1.82787 1.6232C2.3112 1.64939 2.79694 1.62789 3.28173 1.62782C3.59121 1.62782 3.90069 1.62789 4.23272 1.62789C4.23272 1.32029 4.24526 1.06529 4.22972 0.812051C4.20871 0.471072 4.28984 0.187241 4.59523 -4.81905e-05C4.71678 -4.81905e-05 4.83839 -4.81905e-05 4.95994 -4.81905e-05C5.24111 0.180418 5.35573 0.433951 5.33121 0.771116C5.31122 1.0457 5.32706 1.32293 5.32706 1.60427C6.34778 1.60427 7.3224 1.60427 8.32949 1.60427C8.32949 1.32799 8.34247 1.07395 8.32635 0.821735C8.30468 0.481709 8.40412 0.20514 8.68019 -0.00012207C8.8018 -0.00012207 8.92342 -0.00012207 9.04497 -0.00012207C9.34474 0.166626 9.44936 0.425075 9.42762 0.762166C9.40982 1.03778 9.42397 1.3156 9.42397 1.60478C10.4465 1.60478 11.4227 1.60478 12.4367 1.60478C12.4367 1.30452 12.4449 1.02648 12.4346 0.749181C12.4222 0.414951 12.525 0.152394 12.8382 -0.00012207C12.9354 -0.00012207 13.0327 -0.00012207 13.13 -0.00012207C13.441 0.154228 13.5458 0.416125 13.5335 0.750428C13.5233 1.02773 13.5315 1.30569 13.5315 1.59466C14.5543 1.59466 15.5378 1.59466 16.5442 1.59466C16.5442 1.29498 16.5585 1.02692 16.5406 0.761066C16.5179 0.423901 16.6212 0.165086 16.9232 -0.00012207C17.0447 -0.00012207 17.1664 -0.00012207 17.2879 -0.00012207C17.8734 0.419793 17.5208 1.08158 17.6767 1.59855C18.6719 1.59855 19.6458 1.59855 20.6411 1.59855C20.6411 1.30298 20.6567 1.03521 20.6372 0.770162C20.6123 0.433511 20.723 0.17807 21.0082 -0.00012207C21.1298 -0.00012207 21.2514 -0.00012207 21.3729 -0.00012207C21.6737 0.189661 21.76 0.471072 21.7387 0.812932C21.7223 1.07542 21.7354 1.33973 21.7354 1.60214C22.7585 1.60214 23.7328 1.60214 24.7336 1.60214C24.7336 1.32323 24.7468 1.06845 24.7304 0.815645C24.7081 0.473712 24.8008 0.194723 25.0933 -0.00012207C25.2148 0.000318092 25.3363 0.00031785 25.4579 0.00031785ZM1.09451 6.94226C10.409 6.94226 19.6749 6.94226 28.965 6.94226C28.965 5.64965 28.9686 4.38074 28.9625 3.1119C28.9609 2.80855 28.7472 2.72984 28.4893 2.72947C27.8087 2.72822 27.1281 2.72881 26.4476 2.72866C26.2476 2.72866 26.0474 2.72866 25.8286 2.72866C25.8286 3.19604 25.8518 3.6007 25.8178 4.00051C25.803 4.17518 25.7126 4.39996 25.5807 4.49203C25.4508 4.58248 25.1748 4.60882 25.0536 4.52717C24.8995 4.42344 24.7698 4.19022 24.7485 3.99941C24.7032 3.59292 24.7347 3.17785 24.7347 2.75419C23.7143 2.75419 22.7381 2.75419 21.7354 2.75419C21.7354 3.15665 21.7388 3.53387 21.7345 3.91109C21.7297 4.34611 21.5331 4.6006 21.202 4.61249C20.8577 4.62481 20.6455 4.36071 20.6418 3.90801C20.6387 3.52286 20.6411 3.13772 20.6411 2.74906C19.6164 2.74906 18.6493 2.74906 17.6379 2.74906C17.6379 3.16817 17.6472 3.56805 17.6352 3.96721C17.6233 4.36548 17.3992 4.61395 17.0812 4.61212C16.761 4.61021 16.5523 4.36284 16.5459 3.96075C16.5396 3.56211 16.5445 3.16325 16.5445 2.73013C15.5736 2.73013 14.6527 2.72529 13.732 2.74026C13.6645 2.74136 13.5476 2.88243 13.542 2.96452C13.5191 3.29295 13.5504 3.62542 13.5227 3.95305C13.5083 4.12427 13.4581 4.34281 13.3417 4.44134C13.2165 4.54719 12.9848 4.59437 12.8172 4.56524C12.5427 4.51763 12.4443 4.2754 12.4409 4.00961C12.4355 3.59725 12.4394 3.18482 12.4394 2.75324C11.4143 2.75324 10.4381 2.75324 9.41755 2.75324C9.41755 3.2138 9.42726 3.65117 9.41434 4.08774C9.40486 4.40664 9.20408 4.58762 8.90387 4.60412C8.6181 4.6199 8.41645 4.45938 8.36115 4.16623C8.33211 4.01203 8.33292 3.85108 8.3308 3.69299C8.3265 3.38098 8.32949 3.06876 8.32949 2.75984C7.29614 2.75984 6.32057 2.75984 5.32698 2.75984C5.32698 3.16912 5.33019 3.54737 5.32618 3.92554C5.32158 4.35558 5.11643 4.61161 4.78346 4.61329C4.4491 4.61491 4.23979 4.35983 4.23403 3.93009C4.22885 3.54267 4.23286 3.15518 4.23286 2.73285C3.28516 2.73285 2.37693 2.72595 1.46899 2.73754C1.23065 2.74055 1.09488 2.89512 1.09473 3.14594C1.09422 4.40275 1.09451 5.65978 1.09451 6.94226Z" fill="#393737"/>
<path fill-rule="evenodd" clip-rule="evenodd" d="M28.7175 21.8105C29.163 22.0083 29.6244 22.146 30.0109 22.399C30.8503 22.9485 31.1966 23.8119 31.2266 24.7769C31.2676 26.0951 31.2437 27.4158 31.2343 28.7352C31.2286 29.5379 30.7519 30 29.953 30C27.535 30.0001 25.117 29.9989 22.699 29.995C21.805 29.9935 21.3601 29.5435 21.3573 28.6381C21.3535 27.404 21.3545 26.1699 21.3568 24.9358C21.3599 23.3498 22.2309 22.2619 23.7769 21.906C23.811 21.8983 23.8417 21.8762 23.9112 21.8431C23.2786 20.9962 23.028 20.0605 23.2979 19.0283C23.4763 18.3459 23.8552 17.7779 24.4211 17.3625C25.7331 16.3994 27.2772 16.5031 28.4713 17.6232C29.3413 18.4392 29.925 20.157 28.7175 21.8105ZM22.4719 28.8801C22.8121 28.8801 23.1114 28.8801 23.46 28.8801C23.46 28.6248 23.4598 28.3839 23.4601 28.1432C23.4608 27.4224 23.4536 26.7015 23.4658 25.9808C23.472 25.6217 23.6821 25.3973 23.9783 25.3832C24.285 25.3688 24.5171 25.6008 24.5484 25.9671C24.5619 26.1248 24.5543 26.2846 24.5544 26.4434C24.5548 27.2466 24.5545 28.0498 24.5545 28.874C25.7298 28.874 26.865 28.874 28.0471 28.874C28.0471 28.7145 28.047 28.5716 28.0472 28.4286C28.0478 27.6223 28.0407 26.8158 28.0523 26.0097C28.0579 25.6241 28.2684 25.3934 28.5768 25.3831C28.8967 25.3725 29.1291 25.6157 29.1372 26.0114C29.1499 26.6342 29.1418 27.2573 29.1422 27.8805C29.1424 28.2063 29.1422 28.532 29.1422 28.8597C29.4975 28.8597 29.8034 28.8597 30.1308 28.8597C30.1308 27.518 30.1329 26.2117 30.1301 24.9055C30.1276 23.7093 29.3894 22.9646 28.1988 22.9602C26.9353 22.9558 25.6717 22.9562 24.4083 22.9602C23.1996 22.964 22.4592 23.706 22.4522 24.9272C22.4453 26.1367 22.4503 27.3461 22.4514 28.5556C22.4518 28.6515 22.4633 28.7472 22.4719 28.8801ZM28.3072 19.8339C28.3128 18.7364 27.4154 17.8221 26.3279 17.8174C25.1915 17.8124 24.2894 18.7123 24.2896 19.8507C24.2899 20.9367 25.2025 21.8523 26.289 21.857C27.393 21.8616 28.3014 20.951 28.3072 19.8339Z" fill="#B34C9D"/>
<path fill-rule="evenodd" clip-rule="evenodd" d="M17.0702 23.6661C17.0701 24.0082 17.0758 24.3504 17.0688 24.6924C17.0565 25.2962 16.7534 25.6335 16.1551 25.6524C15.4389 25.6748 14.7209 25.6742 14.0046 25.6528C13.4225 25.6355 13.1085 25.3215 13.0896 24.7325C13.0664 24.0124 13.066 23.2904 13.0894 22.5702C13.1094 21.9542 13.4478 21.6514 14.0743 21.6444C14.7425 21.6369 15.411 21.637 16.0792 21.6444C16.7373 21.6515 17.0608 21.9809 17.0693 22.6397C17.0739 22.9819 17.0702 23.3239 17.0702 23.6661ZM15.9456 24.5375C15.9456 23.9296 15.9456 23.3433 15.9456 22.7618C15.3501 22.7618 14.785 22.7618 14.2112 22.7618C14.2112 23.3669 14.2112 23.9528 14.2112 24.5375C14.8107 24.5375 15.3753 24.5375 15.9456 24.5375Z" fill="#393737"/>
<path fill-rule="evenodd" clip-rule="evenodd" d="M2.99587 23.6158C2.99587 23.2736 2.98631 22.931 2.99799 22.5893C3.01834 21.9933 3.34285 21.6581 3.9327 21.6463C4.63724 21.6322 5.34258 21.6328 6.04719 21.646C6.63594 21.6572 6.97256 21.9882 6.98766 22.584C7.00547 23.2922 7.00495 24.0017 6.98795 24.7101C6.97358 25.3073 6.64842 25.6374 6.0528 25.6537C5.34849 25.6731 4.64271 25.6726 3.93839 25.654C3.32593 25.6377 3.01199 25.2985 2.9974 24.6788C2.98894 24.3247 2.99573 23.9701 2.99587 23.6158ZM4.11429 22.7583C4.11429 23.3685 4.11429 23.9462 4.11429 24.5327C4.71333 24.5327 5.28779 24.5327 5.87107 24.5327C5.87107 23.9286 5.87107 23.3508 5.87107 22.7583C5.27976 22.7583 4.71319 22.7583 4.11429 22.7583Z" fill="#393737"/>
<path fill-rule="evenodd" clip-rule="evenodd" d="M10.062 21.6428C10.3902 21.6428 10.7185 21.6375 11.0465 21.644C11.683 21.6564 12.0202 21.9822 12.0297 22.6131C12.0401 23.3096 12.0411 24.0065 12.0292 24.7029C12.0191 25.2859 11.7119 25.6289 11.1389 25.6501C10.4107 25.677 9.68018 25.6748 8.95164 25.6516C8.37441 25.6332 8.0572 25.3051 8.0413 24.723C8.02197 24.0146 8.02379 23.3051 8.0402 22.5967C8.05443 21.9823 8.39288 21.6597 9.00468 21.6446C9.35699 21.6358 9.70958 21.6428 10.062 21.6428ZM9.15694 22.7572C9.15694 23.3701 9.15694 23.9479 9.15694 24.5328C9.75912 24.5328 10.3343 24.5328 10.9135 24.5328C10.9135 23.928 10.9135 23.3494 10.9135 22.7572C10.3221 22.7572 9.75496 22.7572 9.15694 22.7572Z" fill="#393737"/>
<path fill-rule="evenodd" clip-rule="evenodd" d="M5.1058 10.6916C5.4581 10.6919 5.81077 10.6817 6.16271 10.6943C6.72433 10.7142 7.05044 11.021 7.06576 11.5828C7.08568 12.3152 7.08422 13.0489 7.06656 13.7815C7.05299 14.346 6.72841 14.6689 6.17438 14.6797C5.44577 14.694 4.71636 14.6934 3.9876 14.6805C3.43175 14.6707 3.10235 14.3599 3.08316 13.793C3.05829 13.0608 3.05916 12.3266 3.08207 11.5944C3.10038 11.0117 3.43014 10.7101 4.01241 10.6931C4.3766 10.6825 4.74131 10.6911 5.1058 10.6916ZM4.18443 13.563C4.7915 13.563 5.3664 13.563 5.95012 13.563C5.95012 12.9651 5.95012 12.3888 5.95012 11.8207C5.34757 11.8207 4.77275 11.8207 4.18443 11.8207C4.18443 12.407 4.18443 12.9638 4.18443 13.563Z" fill="#393737"/>
<path fill-rule="evenodd" clip-rule="evenodd" d="M10.0207 14.6843C9.68052 14.6846 9.34025 14.6904 9.0002 14.6833C8.39649 14.6709 8.05995 14.3685 8.042 13.7722C8.02033 13.0521 8.0215 12.3304 8.04149 11.6101C8.05783 11.024 8.38271 10.7057 8.95723 10.6946C9.67374 10.6808 10.3909 10.6814 11.1075 10.6943C11.6891 10.705 12.0133 11.0208 12.0274 11.6036C12.0449 12.3239 12.0434 13.0453 12.0278 13.7656C12.0153 14.3489 11.6902 14.665 11.1142 14.6819C10.7499 14.6927 10.3851 14.684 10.0207 14.6843ZM10.9203 11.823C10.3031 11.823 9.72889 11.823 9.15531 11.823C9.15531 12.4217 9.15531 12.988 9.15531 13.5608C9.75566 13.5608 10.3306 13.5608 10.9203 13.5608C10.9203 12.9703 10.9203 12.4036 10.9203 11.823Z" fill="#393737"/>
<path fill-rule="evenodd" clip-rule="evenodd" d="M15.0606 14.684C14.7082 14.6843 14.3557 14.6919 14.0036 14.6825C13.4384 14.6676 13.1012 14.3766 13.0799 13.8151C13.0512 13.0589 13.0499 12.2997 13.0818 11.5437C13.1047 10.9986 13.4373 10.7052 13.9839 10.695C14.7126 10.6814 15.442 10.6807 16.1707 10.6963C16.7131 10.7079 17.0402 11.0178 17.0574 11.5604C17.0809 12.3048 17.0792 13.051 17.0593 13.7956C17.0444 14.3549 16.7126 14.6644 16.1539 14.6815C15.7898 14.6928 15.425 14.6837 15.0606 14.684ZM14.1776 13.5605C14.7896 13.5605 15.3646 13.5605 15.9408 13.5605C15.9408 12.9609 15.9408 12.3856 15.9408 11.8231C15.3359 11.8231 14.7617 11.8231 14.1776 11.8231C14.1776 12.4121 14.1776 12.9688 14.1776 13.5605Z" fill="#393737"/>
<path fill-rule="evenodd" clip-rule="evenodd" d="M22.1106 12.754C22.1106 13.0961 22.1164 13.4383 22.1092 13.7802C22.0969 14.3676 21.7971 14.7121 21.2264 14.73C20.4861 14.7533 19.7437 14.7539 19.0034 14.7283C18.4603 14.7095 18.1556 14.3909 18.1397 13.8402C18.1186 13.1078 18.1191 12.374 18.1375 11.6415C18.1521 11.0566 18.468 10.7406 19.0526 10.7251C19.7689 10.7061 20.4866 10.7044 21.2029 10.726C21.7948 10.7438 22.0985 11.0855 22.1095 11.6911C22.1158 12.0453 22.1107 12.3997 22.1106 12.754ZM19.242 13.6158C19.8518 13.6158 20.4155 13.6158 20.9947 13.6158C20.9947 13.0163 20.9947 12.4382 20.9947 11.8488C20.4017 11.8488 19.8292 11.8488 19.242 11.8488C19.242 12.4473 19.242 13.0171 19.242 13.6158Z" fill="#393737"/>
<path fill-rule="evenodd" clip-rule="evenodd" d="M4.97065 20.1856C4.61835 20.1853 4.26575 20.1939 3.91381 20.1834C3.35125 20.1666 3.01959 19.8642 3.00274 19.3031C2.98041 18.5587 2.97968 17.8124 3.00369 17.0681C3.02171 16.5084 3.35278 16.2058 3.92118 16.1957C4.63768 16.183 5.35484 16.1822 6.07134 16.196C6.6458 16.207 6.97089 16.5258 6.98694 17.1119C7.00671 17.832 7.00795 18.5537 6.98643 19.2739C6.96863 19.8696 6.63179 20.1727 6.02764 20.1847C5.67541 20.1917 5.32296 20.186 4.97065 20.1856ZM4.10948 19.0521C4.71166 19.0521 5.29363 19.0521 5.86933 19.0521C5.86933 18.4517 5.86933 17.8857 5.86933 17.3194C5.26773 17.3194 4.69327 17.3194 4.10948 17.3194C4.10948 17.9129 4.10948 18.4791 4.10948 19.0521Z" fill="#393737"/>
<path fill-rule="evenodd" clip-rule="evenodd" d="M27.1519 12.7288C27.1519 13.0832 27.1594 13.4377 27.1503 13.7918C27.1352 14.3798 26.835 14.7139 26.2592 14.731C25.5308 14.7526 24.8008 14.7526 24.0724 14.731C23.4976 14.714 23.1905 14.3794 23.181 13.7923C23.1696 13.0838 23.1694 12.3749 23.181 11.6665C23.1909 11.0666 23.5076 10.7394 24.1083 10.7246C24.8126 10.7072 25.5179 10.7074 26.2223 10.7245C26.8239 10.7391 27.1345 11.0663 27.1503 11.666C27.1594 12.02 27.1519 12.3745 27.1519 12.7288ZM26.0426 11.8433C25.435 11.8433 24.8717 11.8433 24.295 11.8433C24.295 12.4443 24.295 13.022 24.295 13.6083C24.8908 13.6083 25.4634 13.6083 26.0426 13.6083C26.0426 13.0099 26.0426 12.4401 26.0426 11.8433Z" fill="#393737"/>
<path fill-rule="evenodd" clip-rule="evenodd" d="M20.1081 20.1823C19.7318 20.1823 19.3549 20.196 18.9793 20.1789C18.4872 20.1567 18.169 19.8739 18.1514 19.3829C18.1231 18.5909 18.1229 17.7964 18.1499 17.0043C18.1668 16.5098 18.4795 16.2148 18.9705 16.2023C19.7347 16.1825 20.5001 16.1818 21.2643 16.2013C21.7823 16.2143 22.0943 16.5416 22.1052 17.068C22.1207 17.8123 22.1203 18.5574 22.106 19.3017C22.0955 19.8438 21.7745 20.1531 21.237 20.1845C21.2128 20.1858 21.1884 20.1858 21.1642 20.1858C20.8121 20.1859 20.46 20.1858 20.1079 20.1858C20.1081 20.1848 20.1081 20.1834 20.1081 20.1823ZM19.2408 19.0591C19.8444 19.0591 20.4171 19.0591 20.9948 19.0591C20.9948 18.465 20.9948 17.8978 20.9948 17.3197C20.4014 17.3197 19.8285 17.3197 19.2408 17.3197C19.2408 17.905 19.2408 18.4631 19.2408 19.0591Z" fill="#393737"/>
<path fill-rule="evenodd" clip-rule="evenodd" d="M9.62956 18.2321C9.99543 17.8547 10.3119 17.5192 10.6385 17.194C10.9427 16.891 11.2613 16.8588 11.4999 17.091C11.746 17.3308 11.7246 17.6481 11.4244 17.9566C10.9836 18.4093 10.5391 18.8583 10.0871 19.2993C9.77729 19.6015 9.50028 19.6069 9.19423 19.3202C8.92845 19.0713 8.67121 18.8123 8.42323 18.5455C8.17503 18.2782 8.16591 17.9451 8.38055 17.728C8.59993 17.5061 8.92035 17.5165 9.19124 17.7677C9.33248 17.8988 9.45709 18.048 9.62956 18.2321Z" fill="#B34C9D"/>
<path fill-rule="evenodd" clip-rule="evenodd" d="M14.6545 18.2317C15.0334 17.8443 15.3518 17.5101 15.6799 17.1859C15.9834 16.886 16.3046 16.8594 16.5411 17.0993C16.7812 17.3429 16.7539 17.6538 16.4501 17.9649C16.0173 18.4084 15.581 18.8484 15.1387 19.2821C14.7987 19.6154 14.5353 19.6148 14.1936 19.2867C13.9397 19.043 13.6878 18.7958 13.4496 18.5366C13.2039 18.2693 13.2014 17.9335 13.422 17.72C13.6462 17.5031 13.9608 17.5193 14.2328 17.7756C14.3725 17.9072 14.4948 18.0575 14.6545 18.2317Z" fill="#B34C9D"/>
</svg>
