<svg width="32" height="32" viewBox="0 0 32 32" fill="none" xmlns="http://www.w3.org/2000/svg">
<path fill-rule="evenodd" clip-rule="evenodd" d="M31.9089 26.2818C31.7349 26.2818 31.6005 26.2818 31.466 26.2818C27.3487 26.2818 23.2313 26.2821 19.114 26.2809C18.9204 26.2809 18.7261 26.2773 18.5335 26.2601C18.1372 26.2246 17.8677 25.915 17.8794 25.5221C17.8904 25.145 18.1641 24.859 18.5464 24.8304C18.6485 24.8227 18.7516 24.8275 18.8542 24.8275C22.5724 24.8274 26.2906 24.8274 30.0088 24.8274C30.1432 24.8274 30.2776 24.8274 30.4328 24.8274C30.4328 19.4664 30.4328 14.136 30.4328 8.76444C28.0022 8.76444 25.5918 8.76444 23.152 8.76444C23.152 6.32194 23.152 3.92044 23.152 1.49526C19.0124 1.49526 14.9025 1.49526 10.7436 1.49526C10.7436 1.61989 10.7436 1.74056 10.7436 1.86129C10.7436 3.07025 10.7472 4.27921 10.7399 5.48811C10.7388 5.67852 10.712 5.87583 10.6562 6.05734C10.5594 6.37245 10.3294 6.55232 9.99392 6.54753C9.67403 6.54294 9.45939 6.36472 9.35851 6.0659C9.31183 5.92758 9.27549 5.77789 9.27514 5.63328C9.27042 3.80847 9.27302 1.98359 9.27473 0.158788C9.27473 0.12573 9.28671 0.0926033 9.30108 0.0184119C9.41394 0.0125259 9.53399 0.000822026 9.65411 0.000822026C14.3873 -0.000136165 19.1206 -0.00232617 23.8537 0.00910369C24.0331 0.00958278 24.2584 0.0976001 24.3847 0.222918C26.8293 2.64933 29.2642 5.08567 31.6924 7.52844C31.8054 7.64219 31.8997 7.83527 31.9 7.99166C31.9104 13.9908 31.9089 19.9901 31.9089 25.9893C31.9089 26.0679 31.9089 26.1465 31.9089 26.2818ZM29.2856 7.29341C27.7311 5.73854 26.1732 4.18032 24.6268 2.63345C24.6268 4.15609 24.6268 5.71842 24.6268 7.29341C26.2065 7.29341 27.7631 7.29341 29.2856 7.29341Z" fill="#393737"/>
<path fill-rule="evenodd" clip-rule="evenodd" d="M8.50111 31.9966C6.96136 31.9965 5.42162 32.0058 3.88201 31.9941C2.24193 31.9816 0.953709 30.9749 0.605475 29.4263C0.523824 29.0631 0.504044 28.68 0.502675 28.3058C0.496241 26.5839 0.502264 24.8618 0.511709 23.1398C0.522797 21.124 1.92545 19.7176 3.93957 19.7132C7.00756 19.7065 10.0756 19.7075 13.1436 19.7129C15.1782 19.7165 16.575 21.1248 16.5774 23.1627C16.5794 24.9647 16.5802 26.7667 16.5772 28.5687C16.5738 30.5813 15.1712 31.9874 13.1545 31.9954C11.6033 32.0015 10.0522 31.9967 8.50111 31.9966ZM8.55162 21.1829C7.02433 21.1829 5.49697 21.1805 3.96968 21.1837C2.70207 21.1863 1.98356 21.9084 1.98397 23.1823C1.98445 24.9944 2.02593 26.8073 1.98157 28.6182C1.95783 29.5888 2.73471 30.5407 3.89207 30.5326C6.99216 30.5107 10.0925 30.5289 13.1928 30.5231C14.3646 30.521 15.0883 29.7954 15.0967 28.6263C15.11 26.8146 15.1186 25.0028 15.1213 23.191C15.1231 21.914 14.3852 21.1854 13.0995 21.1835C11.5835 21.1812 10.0675 21.1829 8.55162 21.1829Z" fill="#393737"/>
<path fill-rule="evenodd" clip-rule="evenodd" d="M8.56367 8.04245C11.397 8.05238 13.6621 10.3325 13.6504 13.1632C13.6388 16.0073 11.3447 18.2739 8.49516 18.2567C5.6856 18.2397 3.41948 15.9271 3.43687 13.0948C3.45411 10.2948 5.74967 8.0326 8.56367 8.04245ZM8.54409 9.49726C6.53429 9.49829 4.8825 11.1546 4.89414 13.1573C4.90571 15.1557 6.53347 16.7846 8.53342 16.7992C10.5341 16.8138 12.1945 15.1599 12.196 13.151C12.1976 11.1379 10.5567 9.49617 8.54409 9.49726Z" fill="#393737"/>
<path fill-rule="evenodd" clip-rule="evenodd" d="M23.0672 12.4394C21.6301 12.4394 20.193 12.4399 18.7558 12.4391C18.1912 12.4388 17.8751 12.176 17.8787 11.7143C17.8822 11.2645 18.19 11.0063 18.734 11.0024C21.2417 10.9844 23.7492 10.9646 26.2568 10.9529C26.6886 10.9509 27.1204 10.985 27.5523 11.0025C27.9811 11.0199 28.2722 11.3008 28.2802 11.7047C28.2884 12.1233 27.9921 12.4356 27.5497 12.4363C26.181 12.4383 24.8124 12.4284 23.4437 12.4232C23.3182 12.4228 23.1928 12.4232 23.0672 12.4232C23.0672 12.4286 23.0672 12.434 23.0672 12.4394Z" fill="#B34C9D"/>
<path fill-rule="evenodd" clip-rule="evenodd" d="M23.0616 18.2569C24.521 18.257 25.9804 18.256 27.4398 18.2575C27.9711 18.258 28.2849 18.5318 28.2804 18.9833C28.2761 19.4225 27.97 19.6921 27.4582 19.6934C24.5737 19.7008 21.6892 19.7058 18.8047 19.7112C18.7364 19.7114 18.6678 19.7099 18.5997 19.7053C18.0904 19.6711 17.7973 19.3905 17.8107 18.951C17.824 18.5159 18.1324 18.2579 18.649 18.2574C20.1199 18.2559 21.5907 18.2569 23.0616 18.2569Z" fill="#B34C9D"/>
<path fill-rule="evenodd" clip-rule="evenodd" d="M23.0611 16.0668C21.5903 16.0667 20.1195 16.0704 18.6486 16.0649C18.0739 16.0628 17.726 15.5724 17.934 15.0726C18.0626 14.7636 18.3051 14.6298 18.6351 14.6289C20.0714 14.6248 21.5079 14.6128 22.9442 14.6129C24.4262 14.613 25.9082 14.6239 27.3903 14.6295C27.9628 14.6317 28.2761 14.8813 28.2804 15.3406C28.2847 15.8025 27.9687 16.0663 27.4051 16.0666C25.9572 16.0675 24.5091 16.0668 23.0611 16.0668Z" fill="#B34C9D"/>
<path fill-rule="evenodd" clip-rule="evenodd" d="M15.3467 11.7208C15.3477 11.3305 15.6751 11.0036 16.0646 11.0037C16.4542 11.004 16.7823 11.3322 16.7819 11.7213C16.7816 12.1107 16.4533 12.4385 16.064 12.4385C15.6747 12.4383 15.3457 12.1091 15.3467 11.7208Z" fill="#B34C9D"/>
<path fill-rule="evenodd" clip-rule="evenodd" d="M16.0629 16.0659C15.6735 16.0651 15.3451 15.7355 15.3467 15.3472C15.3483 14.9569 15.6762 14.6304 16.0657 14.6312C16.4554 14.632 16.7829 14.9606 16.7819 15.3499C16.781 15.7394 16.4524 16.0667 16.0629 16.0659Z" fill="#B34C9D"/>
<path fill-rule="evenodd" clip-rule="evenodd" d="M16.0784 19.6929C15.6888 19.7008 15.3539 19.3791 15.347 18.9901C15.3401 18.5994 15.6599 18.2669 16.0501 18.2591C16.4397 18.2514 16.7738 18.5722 16.7814 18.9617C16.7891 19.3514 16.4683 19.685 16.0784 19.6929Z" fill="#B34C9D"/>
</svg>
