<svg width="33" height="37" viewBox="0 0 33 37" fill="none" xmlns="http://www.w3.org/2000/svg">
<path fill-rule="evenodd" clip-rule="evenodd" d="M0 20.7211C0.0620826 13.1644 5.47639 6.69736 12.9437 5.43797C18.1752 4.5557 22.723 6.04568 26.5698 9.6912C26.9801 10.0799 27.1386 10.5465 26.9601 11.089C26.7985 11.5799 26.4368 11.871 25.9282 11.9555C25.4462 12.0353 25.0675 11.8282 24.7297 11.4982C23.0184 9.82462 20.9959 8.71215 18.6734 8.13413C11.5354 6.35802 4.17496 11.1033 2.86197 18.3315C1.58137 25.3792 5.95454 32.0101 12.9699 33.4742C17.4202 34.4028 21.3425 33.1889 24.6722 30.0925C25.0363 29.7539 25.4134 29.4956 25.9316 29.5827C26.4395 29.6679 26.8004 29.9606 26.9616 30.4515C27.1336 30.9763 26.9878 31.4329 26.5972 31.82C25.1384 33.2653 23.4618 34.3874 21.5627 35.1644C12.9541 38.6842 3.25144 34.0041 0.655924 25.0777C0.471604 24.4437 0.326225 23.7932 0.232137 23.1408C0.116455 22.3395 0.0740364 21.5282 0 20.7211Z" fill="#B24D9B"/>
<path fill-rule="evenodd" clip-rule="evenodd" d="M24.6968 20.0846C26.514 20.0846 28.2916 20.0846 30.1116 20.0846C30.1116 19.9376 30.1116 19.8073 30.1116 19.677C30.1116 18.663 30.1057 17.649 30.114 16.6351C30.1203 15.9203 30.6341 15.3978 31.2973 15.4096C31.948 15.4211 32.4364 15.937 32.4388 16.6389C32.4447 18.1538 32.444 19.6687 32.4391 21.1836C32.4367 21.9527 31.9508 22.4282 31.1674 22.4292C29.1516 22.4327 27.1358 22.4306 25.1204 22.4306C24.9901 22.4306 24.8602 22.4306 24.7302 22.4306C24.7125 22.4612 24.6947 22.4919 24.6776 22.5225C25.1538 22.9858 25.6317 23.4477 26.1061 23.9131C26.413 24.2144 26.5666 24.5767 26.4729 25.0079C26.3782 25.4457 26.1166 25.7491 25.6808 25.8878C25.2109 26.0376 24.8142 25.901 24.4766 25.5659C23.5842 24.6787 22.6963 23.7873 21.8056 22.8984C21.5374 22.6309 21.2619 22.3707 20.9985 22.099C20.5213 21.6071 20.5178 20.9167 21.0031 20.4294C22.1494 19.2775 23.3 18.1308 24.4554 16.9883C24.9702 16.4793 25.6867 16.472 26.1545 16.9527C26.6119 17.423 26.5924 18.1203 26.0988 18.6261C25.655 19.0807 25.2029 19.5269 24.7553 19.9776C24.7386 19.9933 24.732 20.018 24.6968 20.0846Z" fill="#293646"/>
<path fill-rule="evenodd" clip-rule="evenodd" d="M16.9124 16.2357C16.9124 17.6956 16.9051 19.1555 16.9166 20.6154C16.9201 21.0778 16.7697 21.4491 16.4427 21.775C14.3358 23.8734 12.2361 25.9796 10.1315 28.0812C9.53651 28.675 8.76105 28.7062 8.22429 28.1702C7.68868 27.6358 7.71799 26.8588 8.31298 26.2619C10.231 24.3377 12.1582 22.4224 14.067 20.4886C14.2155 20.3382 14.3246 20.0756 14.3257 19.8643C14.3431 17.1608 14.3335 14.4573 14.3392 11.7538C14.3412 10.7655 15.2442 10.1196 16.1088 10.4879C16.6463 10.7169 16.912 11.1461 16.912 11.7345C16.9124 13.2349 16.9124 14.7353 16.9124 16.2357Z" fill="#B24D9B"/>
<path fill-rule="evenodd" clip-rule="evenodd" d="M15.6372 2.57562C14.5429 2.57562 13.4489 2.57755 12.3546 2.57523C11.5186 2.57331 10.9355 2.04888 10.9297 1.29964C10.9236 0.534215 11.5116 0.00207663 12.3723 0.00130541C14.5475 -0.000237012 16.7223 -0.000622618 18.8971 0.00130541C19.7362 0.00207663 20.3146 0.523425 20.3212 1.27574C20.3277 2.04233 19.7405 2.57369 18.8794 2.57523C17.7986 2.57716 16.7177 2.57562 15.6372 2.57562Z" fill="#B24D9B"/>
</svg>
