<svg width="23" height="14" viewBox="0 0 23 14" fill="none" xmlns="http://www.w3.org/2000/svg">
<path d="M15.3155 1.17652C15.2061 1.28564 15.1194 1.41525 15.0602 1.55794C15.001 1.70063 14.9705 1.85359 14.9705 2.00807C14.9705 2.16254 15.001 2.3155 15.0602 2.45819C15.1194 2.60088 15.2061 2.73049 15.3155 2.83961L19.8801 7.41606L15.3037 11.9925C15.0831 12.213 14.9592 12.5122 14.9592 12.824C14.9592 13.1359 15.0831 13.4351 15.3037 13.6556C15.5242 13.8761 15.8233 14 16.1352 14C16.4471 14 16.7462 13.8761 16.9668 13.6556L22.3806 8.2417C22.49 8.13259 22.5767 8.00297 22.6359 7.86028C22.6951 7.7176 22.7256 7.56464 22.7256 7.41016C22.7256 7.25568 22.6951 7.10272 22.6359 6.96004C22.5767 6.81735 22.49 6.68774 22.3806 6.57862L16.9668 1.16473C16.5186 0.716519 15.7755 0.716517 15.3155 1.17652Z" fill="#293646"/>
<path d="M7.93144 1.17652C7.82209 1.28564 7.73534 1.41525 7.67615 1.55794C7.61696 1.70063 7.5865 1.85359 7.5865 2.00807C7.5865 2.16254 7.61696 2.3155 7.67615 2.45819C7.73534 2.60088 7.82209 2.73049 7.93144 2.83961L12.4961 7.41606L7.91964 11.9925C7.6991 12.213 7.5752 12.5122 7.5752 12.824C7.5752 13.1359 7.6991 13.4351 7.91964 13.6556C8.14018 13.8761 8.43929 14 8.75118 14C9.06307 14 9.36219 13.8761 9.58273 13.6556L14.9966 8.2417C15.106 8.13259 15.1927 8.00297 15.2519 7.86028C15.3111 7.7176 15.3416 7.56464 15.3416 7.41016C15.3416 7.25568 15.3111 7.10272 15.2519 6.96004C15.1927 6.81735 15.106 6.68774 14.9966 6.57862L9.58273 1.16473C9.13452 0.716519 8.39144 0.716517 7.93144 1.17652Z" fill="#293646" fill-opacity="0.56"/>
<path d="M0.35624 1.17652C0.246896 1.28564 0.160147 1.41525 0.100958 1.55794C0.0417696 1.70063 0.0113031 1.85359 0.011303 2.00807C0.011303 2.16254 0.0417696 2.3155 0.100958 2.45819C0.160147 2.60088 0.246896 2.73049 0.35624 2.83961L4.92089 7.41606L0.344443 11.9925C0.123904 12.213 6.32896e-06 12.5122 6.30169e-06 12.824C6.27442e-06 13.1359 0.123904 13.4351 0.344443 13.6556C0.564983 13.8761 0.864099 14 1.17599 14C1.48788 14 1.78699 13.8761 2.00753 13.6556L7.42142 8.2417C7.53076 8.13259 7.61751 8.00297 7.6767 7.86028C7.73589 7.7176 7.76636 7.56464 7.76636 7.41016C7.76636 7.25568 7.73589 7.10272 7.6767 6.96004C7.61751 6.81735 7.53076 6.68774 7.42142 6.57862L2.00753 1.16473C1.55933 0.716519 0.816243 0.716517 0.35624 1.17652Z" fill="#293646" fill-opacity="0.25"/>
</svg>
