<svg width="35" height="37" viewBox="0 0 35 37" fill="none" xmlns="http://www.w3.org/2000/svg">
<path fill-rule="evenodd" clip-rule="evenodd" d="M0 20.7211C0.0620826 13.1644 5.47639 6.69736 12.9437 5.43797C18.1752 4.5557 22.723 6.04568 26.5698 9.6912C26.9801 10.0799 27.1386 10.5465 26.9601 11.089C26.7985 11.5799 26.4368 11.871 25.9282 11.9555C25.4462 12.0353 25.0675 11.8282 24.7297 11.4982C23.0184 9.82462 20.9959 8.71215 18.6734 8.13413C11.5354 6.35802 4.17496 11.1033 2.86197 18.3315C1.58137 25.3792 5.95454 32.0101 12.9699 33.4742C17.4202 34.4028 21.3425 33.1889 24.6723 30.0925C25.0363 29.7539 25.4134 29.4956 25.9316 29.5827C26.4395 29.6679 26.8004 29.9606 26.9616 30.4515C27.1336 30.9763 26.9878 31.4329 26.5972 31.82C25.1385 33.2653 23.4618 34.3874 21.5627 35.1644C12.9541 38.6842 3.25144 34.0041 0.655924 25.0777C0.471604 24.4437 0.326225 23.7932 0.232137 23.1408C0.116455 22.3395 0.0740364 21.5282 0 20.7211Z" fill="#B24D9B"/>
<path d="M25.9264 24.5193L21.5446 20.1123C21.2814 19.8475 21.2814 19.4182 21.5446 19.1534L22.4979 18.1946C22.7612 17.9298 23.188 17.9298 23.4513 18.1946L26.4031 21.1633L32.7255 14.8046C32.9888 14.5398 33.4156 14.5398 33.6789 14.8046L34.6322 15.7634C34.8954 16.0282 34.8954 16.4575 34.6322 16.7223L26.8798 24.5193C26.6165 24.7841 26.1897 24.7841 25.9264 24.5193Z" fill="#293646"/>
<path fill-rule="evenodd" clip-rule="evenodd" d="M16.9124 16.2357C16.9124 17.6956 16.9051 19.1555 16.9166 20.6154C16.9201 21.0778 16.7697 21.4491 16.4427 21.775C14.3358 23.8734 12.2361 25.9796 10.1315 28.0812C9.53651 28.675 8.76105 28.7062 8.22429 28.1702C7.68868 27.6358 7.71799 26.8588 8.31298 26.2619C10.231 24.3377 12.1582 22.4224 14.067 20.4886C14.2155 20.3382 14.3246 20.0756 14.3257 19.8643C14.3431 17.1608 14.3335 14.4573 14.3392 11.7538C14.3412 10.7655 15.2442 10.1196 16.1088 10.4879C16.6463 10.7169 16.912 11.1461 16.912 11.7345C16.9124 13.2349 16.9124 14.7353 16.9124 16.2357Z" fill="#B24D9B"/>
<path fill-rule="evenodd" clip-rule="evenodd" d="M15.6372 2.57562C14.5429 2.57562 13.4489 2.57755 12.3546 2.57523C11.5186 2.57331 10.9355 2.04888 10.9297 1.29964C10.9236 0.534215 11.5116 0.00207663 12.3723 0.00130541C14.5475 -0.000237012 16.7223 -0.000622618 18.8971 0.00130541C19.7362 0.00207663 20.3146 0.523425 20.3212 1.27574C20.3277 2.04233 19.7405 2.57369 18.8794 2.57523C17.7986 2.57716 16.7177 2.57562 15.6372 2.57562Z" fill="#B24D9B"/>
</svg>
