<svg width="120" height="243" viewBox="0 0 120 243" fill="none" xmlns="http://www.w3.org/2000/svg">
<path d="M80.0816 190.777C77.2316 189.147 65.2316 182.207 61.1516 179.847C60.3416 179.387 59.8316 179.087 59.7916 179.057C57.763 177.926 55.3927 177.571 53.1216 178.057C51.1722 178.453 49.3051 179.18 47.6016 180.207C47.3216 180.367 47.0416 180.557 46.7716 180.737C42.1616 183.647 38.2016 188.227 34.9016 194.527C31.5414 200.663 29.7387 207.531 29.6516 214.527C29.6516 221.154 31.4183 225.804 34.9516 228.477C35.3094 228.743 35.6834 228.987 36.0716 229.207C39.3816 231.087 55.9816 240.707 56.3516 240.917H56.4416C56.0332 240.693 55.6421 240.439 55.2716 240.157C51.7316 237.49 49.965 232.844 49.9716 226.217C50.0587 219.221 51.8614 212.353 55.2216 206.217C58.7083 199.55 62.9383 194.774 67.9116 191.887C72.6449 189.154 76.7316 188.797 80.1716 190.817L80.0816 190.777Z" fill="#B34C9D"/>
<path opacity="0.4" d="M80.1716 190.837C76.7316 188.837 72.6449 189.19 67.9116 191.897C63.2916 194.564 59.3083 198.897 55.9616 204.897L35.6416 193.127C38.7816 187.517 42.4916 183.387 46.7616 180.697C47.0316 180.527 47.3116 180.327 47.5916 180.167C49.2934 179.138 51.1613 178.414 53.1116 178.027C55.3825 177.535 57.7548 177.891 59.7816 179.027L61.1416 179.817C65.2216 182.167 77.2216 189.107 80.0716 190.737L80.1716 190.837Z" fill="black"/>
<path opacity="0.3" d="M56.4416 240.887H56.3516C55.9816 240.677 39.3516 231.057 36.0716 229.177C35.6834 228.957 35.3094 228.713 34.9516 228.447C31.4183 225.78 29.6516 221.134 29.6516 214.507C29.7362 207.511 31.5391 200.643 34.9016 194.507C35.1416 194.037 35.3916 193.577 35.6516 193.137L55.9616 204.867C55.7116 205.307 55.4616 205.767 55.2216 206.227C51.8614 212.363 50.0587 219.231 49.9716 226.227C49.9716 232.854 51.7383 237.5 55.2716 240.167C55.6434 240.435 56.0345 240.676 56.4416 240.887Z" fill="black"/>
<path d="M71.2216 19.1769C81.0816 13.4769 89.4749 11.0535 96.4016 11.9069C99.2207 12.2436 101.942 13.1485 104.402 14.5669C104.333 14.5306 104.266 14.4905 104.202 14.4469C101.822 13.1069 87.4816 4.83686 84.2016 2.90686C81.6995 1.44451 78.9207 0.518244 76.0416 0.186859C69.1082 -0.659807 60.7116 1.76019 50.8516 7.44686C35.5183 16.2935 23.1849 29.2935 13.8516 46.4469C4.51826 63.6002 -0.0984099 81.1102 0.0015901 98.9769L20.3116 110.707C20.1716 92.8269 24.7883 75.3135 34.1616 58.1669C43.5349 41.0202 55.8882 28.0235 71.2216 19.1769Z" fill="#B34C9D"/>
<path opacity="0.2" d="M104.242 14.4568C101.818 13.107 99.1555 12.2409 96.4017 11.9068C89.4817 11.0535 81.0883 13.4768 71.2217 19.1768C55.8883 28.0168 43.555 41.0168 34.2217 58.1768C33.8317 58.8868 33.4517 59.6068 33.0817 60.3168L12.7217 48.5668C13.0917 47.8568 13.4717 47.1368 13.8617 46.4268C23.235 29.2868 35.5683 16.2868 50.8617 7.42684C60.735 1.73351 69.1317 -0.68649 76.0517 0.166843C78.9315 0.501591 81.7102 1.43125 84.2117 2.89684C87.5217 4.84684 101.862 13.1268 104.242 14.4568Z" fill="black"/>
<path opacity="0.3" d="M33.0316 60.2968C24.4249 76.7568 20.1882 93.5535 20.3215 110.687L0.0115469 98.9568C-0.11512 81.8168 4.12155 65.0202 12.7216 48.5668L33.0316 60.2968Z" fill="black"/>
<path d="M85.0215 52.4168C81.3348 50.4568 76.4114 51.2235 70.2514 54.7168C70.0433 58.3819 69.2883 61.9951 68.0115 65.4368C66.4715 69.5835 61.9915 78.1368 54.5715 91.0968C46.8848 104.497 41.3248 117.294 37.8915 129.487C34.4862 141.525 32.7566 153.976 32.7515 166.487L32.8515 172.717L46.7115 180.717L53.1715 184.447L53.0615 178.207V178.127C53.0835 165.657 54.8129 153.248 58.2015 141.247C61.6348 129.054 67.1981 116.26 74.8915 102.867C82.3048 89.9068 86.7815 81.3502 88.3215 77.1968C89.8593 73.0908 90.6452 68.7414 90.6415 64.3568C90.6415 58.3902 88.7681 54.4102 85.0215 52.4168Z" fill="#B34C9D"/>
<path opacity="0.3" d="M86.3315 81.6869C84.0381 86.4602 80.2248 93.5069 74.8915 102.827C67.1915 116.227 61.6281 129.024 58.2015 141.217C54.8093 153.227 53.0799 165.646 53.0615 178.127V178.287L53.1715 184.527L46.7115 180.807L32.8515 172.807L32.7515 166.567C32.7573 154.056 34.4869 141.606 37.8915 129.567C41.3248 117.374 46.8848 104.577 54.5715 91.1769C59.9048 81.8435 63.7248 74.8002 66.0315 70.0469L86.3315 81.6869Z" fill="black"/>
<path opacity="0.4" d="M90.6415 64.3568C90.6436 68.7274 89.8612 73.0628 88.3315 77.1568C87.9015 78.3268 87.2315 79.8368 86.3315 81.6868L66.0315 69.9668C66.9182 68.1135 67.5848 66.6035 68.0315 65.4368C69.3084 61.9951 70.0634 58.3819 70.2715 54.7168C76.4315 51.2235 81.3548 50.4568 85.0415 52.4168C88.7281 54.3768 90.5948 58.3568 90.6415 64.3568Z" fill="black"/>
<path d="M47.8115 94.8068L20.3214 110.687C20.1814 92.8068 24.7981 75.2935 34.1715 58.1468C43.5448 41.0001 55.8781 28.0002 71.1715 19.1468C81.0315 13.4468 89.4248 11.0235 96.3514 11.8768C103.278 12.7302 108.821 16.5268 112.981 23.2668C117.148 30.0068 119.231 38.4135 119.231 48.4868C119.19 54.3351 118.52 60.162 117.231 65.8668C115.673 72.691 113.57 79.3791 110.941 85.8668C109.261 90.1068 105.238 97.9335 98.8715 109.347C92.7848 120.227 88.9715 127.63 87.4315 131.557C85.722 136.218 84.4532 141.029 83.6415 145.927C82.4307 153.248 81.7623 160.648 81.6415 168.067L53.2115 184.487L53.1015 178.247C53.1073 165.736 54.8369 153.286 58.2415 141.247C61.6748 129.053 67.2381 116.26 74.9315 102.867C82.3448 89.9068 86.8215 81.3502 88.3615 77.1968C89.8857 73.0883 90.658 68.7389 90.6415 64.3568C90.6415 58.3568 88.7715 54.3768 85.0315 52.4168C81.2915 50.4568 76.2714 51.2768 69.9714 54.8768C63.5314 58.5968 58.2481 64.1768 54.1215 71.6168C50.0857 78.6867 47.9143 86.6668 47.8115 94.8068Z" fill="#B34C9D"/>
<path d="M67.8616 191.957C72.9616 189.003 77.3149 188.82 80.9216 191.407C84.5283 193.993 86.3316 198.597 86.3316 205.217C86.2225 212.251 84.3852 219.15 80.9816 225.307C77.4216 232.073 73.1183 236.913 68.0716 239.827C63.0249 242.74 58.7383 242.86 55.2116 240.187C51.6783 237.52 49.9116 232.87 49.9116 226.237C49.9987 219.241 51.8014 212.373 55.1616 206.237C58.6616 199.583 62.895 194.823 67.8616 191.957Z" fill="#B34C9D"/>
</svg>
